<?xml version="1.0" standalone="no"?>
<!DOCTYPE svg PUBLIC "-//W3C//DTD SVG 20010904//EN"
 "http://www.w3.org/TR/2001/REC-SVG-20010904/DTD/svg10.dtd">
<svg version="1.0" xmlns="http://www.w3.org/2000/svg"
 width="700.000000pt" height="700.000000pt" viewBox="0 0 700.000000 700.000000"
 preserveAspectRatio="xMidYMid meet">
<metadata>
Created by potrace 1.14, written by Peter Selinger 2001-2017
</metadata>
<g transform="translate(0.000000,700.000000) scale(0.100000,-0.100000)"
fill="#000000" stroke="none">
<path d="M2303 6407 c2 -6 14 -14 28 -17 28 -8 212 -97 279 -136 210 -121 396
-283 573 -498 54 -67 63 -92 29 -82 -78 22 -410 23 -541 1 -13 -2 -45 -7 -70
-10 -162 -23 -404 -102 -586 -192 -401 -199 -715 -514 -928 -932 l-69 -136 93
92 c124 122 145 140 274 236 127 95 150 109 302 183 189 92 455 169 651 190
115 12 125 12 202 14 138 3 200 0 200 -9 0 -4 -26 -28 -57 -53 -227 -179 -442
-454 -574 -735 -40 -85 -112 -279 -124 -333 -2 -8 -9 -37 -15 -65 -40 -172
-54 -299 -54 -485 0 -117 8 -240 18 -290 1 -8 6 -37 10 -65 27 -169 109 -413
201 -590 50 -96 140 -245 149 -245 3 0 -4 30 -14 66 -11 36 -21 80 -24 97 -3
18 -8 42 -10 54 -3 11 -7 43 -11 70 -4 26 -9 59 -12 73 -9 46 -11 374 -3 445
20 177 47 297 102 464 167 502 539 934 1015 1179 97 50 295 132 318 132 12 0
155 -95 225 -150 244 -192 454 -451 586 -725 56 -116 127 -299 138 -358 2 -12
13 -60 24 -107 51 -216 61 -508 27 -740 -13 -91 -57 -272 -86 -357 -17 -48
-33 -97 -36 -108 -5 -17 38 34 115 135 10 14 46 70 79 125 194 322 295 683
296 1060 0 162 -8 254 -39 420 -11 61 -57 223 -86 300 -36 100 -148 328 -182
374 -14 19 -26 41 -26 48 0 7 -4 13 -10 13 -5 0 -10 5 -10 10 0 6 -23 40 -50
75 -28 36 -47 65 -43 65 42 0 255 -51 362 -86 399 -131 773 -398 1003 -714 15
-22 30 -40 32 -40 11 0 -72 200 -129 315 -116 231 -266 425 -489 630 -85 80
-277 209 -411 278 -120 62 -334 145 -415 162 -8 2 -44 10 -80 18 -131 30 -295
49 -436 50 l-104 0 -72 96 c-74 99 -244 276 -333 348 -248 200 -596 359 -905
413 -106 18 -113 19 -165 25 -102 12 -136 12 -132 2z"/>
<path d="M3504 4354 c6 -22 9 -37 35 -194 22 -130 32 -191 36 -235 3 -32 13
-124 20 -190 26 -230 26 -805 0 -1000 -4 -28 -8 -65 -21 -185 -11 -101 -28
-210 -59 -365 -14 -67 -18 -90 -30 -145 -3 -14 -7 -34 -9 -45 -34 -167 -149
-534 -241 -765 -58 -147 -214 -475 -279 -586 l-36 -61 435 1 434 0 10 25 c27
68 144 491 166 596 2 11 15 74 29 140 14 66 28 136 31 155 3 19 8 46 10 60 3
14 8 43 10 64 3 22 7 51 10 65 12 73 25 162 30 211 5 54 11 111 20 200 13 129
18 278 19 490 0 216 -10 484 -19 520 -2 8 -7 49 -10 90 -3 41 -10 100 -15 130
-5 30 -12 82 -16 115 -3 33 -8 63 -10 66 -2 3 -6 26 -9 50 -3 24 -17 100 -31
169 -14 69 -27 134 -30 145 -2 11 -13 63 -25 115 l-21 95 -211 140 c-116 77
-215 142 -220 144 -5 2 -7 -5 -3 -15z"/>
</g>
</svg>
